<svg id="wave" style="transform:rotate(0deg); transition: 0.3s" viewBox="0 0 1440 410" version="1.1" xmlns="http://www.w3.org/2000/svg"><defs><linearGradient id="sw-gradient-0" x1="0" x2="0" y1="1" y2="0"><stop stop-color="rgba(138.536, 62, 243, 1)" offset="0%"></stop><stop stop-color="rgba(255, 131.31, 11, 1)" offset="100%"></stop></linearGradient></defs><path style="transform:translate(0, 0px); opacity:1" fill="url(#sw-gradient-0)" d="M0,0L15,41C30,82,60,164,90,211.8C120,260,150,273,180,293.8C210,314,240,342,270,355.3C300,369,330,369,360,307.5C390,246,420,123,450,75.2C480,27,510,55,540,75.2C570,96,600,109,630,123C660,137,690,150,720,129.8C750,109,780,55,810,41C840,27,870,55,900,88.8C930,123,960,164,990,150.3C1020,137,1050,68,1080,88.8C1110,109,1140,219,1170,252.8C1200,287,1230,246,1260,191.3C1290,137,1320,68,1350,34.2C1380,0,1410,0,1440,54.7C1470,109,1500,219,1530,252.8C1560,287,1590,246,1620,252.8C1650,260,1680,314,1710,307.5C1740,301,1770,232,1800,232.3C1830,232,1860,301,1890,293.8C1920,287,1950,205,1980,198.2C2010,191,2040,260,2070,259.7C2100,260,2130,191,2145,157.2L2160,123L2160,410L2145,410C2130,410,2100,410,2070,410C2040,410,2010,410,1980,410C1950,410,1920,410,1890,410C1860,410,1830,410,1800,410C1770,410,1740,410,1710,410C1680,410,1650,410,1620,410C1590,410,1560,410,1530,410C1500,410,1470,410,1440,410C1410,410,1380,410,1350,410C1320,410,1290,410,1260,410C1230,410,1200,410,1170,410C1140,410,1110,410,1080,410C1050,410,1020,410,990,410C960,410,930,410,900,410C870,410,840,410,810,410C780,410,750,410,720,410C690,410,660,410,630,410C600,410,570,410,540,410C510,410,480,410,450,410C420,410,390,410,360,410C330,410,300,410,270,410C240,410,210,410,180,410C150,410,120,410,90,410C60,410,30,410,15,410L0,410Z"></path></svg>
